<svg width="500" height="300" xmlns="http://www.w3.org/2000/svg">
<line x1="40" y1="260" x2="460" y2="260" stroke="black"/>
<line x1="40" y1="40" x2="40" y2="260" stroke="black"/>
<polyline fill="none" stroke="teal" stroke-width="2" points="40.0,186.66666666666669 86.66666666666666,186.66666666666669 133.33333333333331,186.66666666666669 180.0,186.66666666666669 226.66666666666666,186.66666666666669 273.33333333333337,186.66666666666669 320.0,186.66666666666669 366.6666666666667,186.66666666666669 413.3333333333333,186.66666666666669 460.0,186.66666666666669"/>
<polyline fill="none" stroke="teal" stroke-width="2" points="40.0,144.86666666666667 86.66666666666666,144.86666666666667 133.33333333333331,144.86666666666667 180.0,144.86666666666667 226.66666666666666,144.86666666666667 273.33333333333337,144.86666666666667 320.0,144.86666666666667 366.6666666666667,144.86666666666667 413.3333333333333,144.86666666666667 460.0,144.86666666666667"/>
<polyline fill="none" stroke="teal" stroke-width="2" points="40.0,67.7037037037037 86.66666666666666,67.7037037037037 133.33333333333331,67.7037037037037 180.0,67.7037037037037 226.66666666666666,67.7037037037037 273.33333333333337,67.7037037037037 320.0,67.7037037037037 366.6666666666667,67.7037037037037 413.3333333333333,67.7037037037037 460.0,60.77777777777777"/>
<polyline fill="none" stroke="teal" stroke-width="2" points="40.0,85.83333333333334 86.66666666666666,85.83333333333334 133.33333333333331,89.5 180.0,98.14285714285714 226.66666666666666,98.14285714285714 273.33333333333337,98.14285714285714 320.0,115.42857142857142 366.6666666666667,115.42857142857142 413.3333333333333,115.42857142857142 460.0,56.5"/>
<polyline fill="none" stroke="teal" stroke-width="2" points="40.0,138.33333333333334 86.66666666666666,138.33333333333334 133.33333333333331,138.33333333333334 180.0,138.33333333333334 226.66666666666666,138.33333333333334 273.33333333333337,138.33333333333334 320.0,138.33333333333334 366.6666666666667,138.33333333333334 413.3333333333333,138.33333333333334 460.0,138.33333333333334"/>
<polyline fill="none" stroke="teal" stroke-width="2" points="40.0,218.44444444444446 86.66666666666666,189.5767195767196 133.33333333333331,189.5767195767196 180.0,109.03540903540903 226.66666666666666,46.796564980158735 273.33333333333337,204.01282051282055 320.0,182.88461538461542 366.6666666666667,182.88461538461542 413.3333333333333,174.89644970414201 460.0,180.1923076923077"/>
<polyline fill="none" stroke="teal" stroke-width="2" points="40.0,144.6825396825397 86.66666666666666,159.14786967418547 133.33333333333331,141.9047619047619 180.0,140.1860119047619 226.66666666666666,140.1860119047619 273.33333333333337,161.12593984962405 320.0,134.61979166666669 366.6666666666667,134.61979166666669 413.3333333333333,134.61979166666669 460.0,134.61979166666669"/>
<polyline fill="none" stroke="teal" stroke-width="2" points="40.0,241.66666666666669 86.66666666666666,167.11111111111114 133.33333333333331,142.66666666666669 180.0,147.90476190476193 226.66666666666666,147.90476190476193 273.33333333333337,120.92857142857144 320.0,120.92857142857144 366.6666666666667,147.90476190476193 413.3333333333333,147.90476190476193 460.0,147.90476190476193"/>
<polyline fill="none" stroke="teal" stroke-width="2" points="40.0,173.68055555555554 86.66666666666666,173.68055555555554 133.33333333333331,96.52777777777777 180.0,96.52777777777777 226.66666666666666,96.52777777777777 273.33333333333337,96.52777777777777 320.0,96.52777777777777 366.6666666666667,96.52777777777777 413.3333333333333,96.52777777777777 460.0,96.52777777777777"/>
<polyline fill="none" stroke="teal" stroke-width="2" points="40.0,130.3571428571429 86.66666666666666,168.3005952380952 133.33333333333331,124.07142857142856 180.0,124.07142857142856 226.66666666666666,124.07142857142856 273.33333333333337,124.07142857142856 320.0,124.07142857142856 366.6666666666667,124.07142857142856 413.3333333333333,89.5 460.0,74.83333333333334"/>
<polyline fill="none" stroke="teal" stroke-width="2" points="40.0,260.0 86.66666666666666,260.0 133.33333333333331,115.86206896551724 180.0,48.58058608058607 226.66666666666666,50.513888888888886 273.33333333333337,94.53333333333333 320.0,57.59566326530614 366.6666666666667,57.59566326530614 413.3333333333333,57.59566326530614 460.0,55.39620535714286"/>
<polyline fill="none" stroke="teal" stroke-width="2" points="40.0,60.448717948717956 86.66666666666666,60.448717948717956 133.33333333333331,60.448717948717956 180.0,60.448717948717956 226.66666666666666,60.448717948717956 273.33333333333337,60.448717948717956 320.0,60.448717948717956 366.6666666666667,60.448717948717956 413.3333333333333,60.448717948717956 460.0,60.448717948717956"/>
<polyline fill="none" stroke="teal" stroke-width="2" points="40.0,227.04761904761907 86.66666666666666,142.85714285714283 133.33333333333331,142.85714285714283 180.0,142.85714285714283 226.66666666666666,142.85714285714283 273.33333333333337,142.85714285714283 320.0,142.85714285714283 366.6666666666667,142.85714285714283 413.3333333333333,142.85714285714283 460.0,142.85714285714283"/>
<polyline fill="none" stroke="teal" stroke-width="2" points="40.0,192.86944444444447 86.66666666666666,192.86944444444447 133.33333333333331,153.2694444444445 180.0,192.86944444444447 226.66666666666666,192.86944444444447 273.33333333333337,192.86944444444447 320.0,140.55833333333337 366.6666666666667,140.55833333333337 413.3333333333333,140.55833333333337 460.0,140.55833333333337"/>
<polyline fill="none" stroke="teal" stroke-width="2" points="40.0,244.28571428571428 86.66666666666666,158.46153846153845 133.33333333333331,89.593537414966 180.0,89.593537414966 226.66666666666666,75.86224489795919 273.33333333333337,75.86224489795919 320.0,75.86224489795919 366.6666666666667,75.86224489795919 413.3333333333333,75.86224489795919 460.0,75.86224489795919"/>
<polyline fill="none" stroke="teal" stroke-width="2" points="40.0,163.2 86.66666666666666,113.33333333333331 133.33333333333331,113.33333333333331 180.0,113.33333333333331 226.66666666666666,113.33333333333331 273.33333333333337,113.33333333333331 320.0,113.33333333333331 366.6666666666667,113.33333333333331 413.3333333333333,113.33333333333331 460.0,113.33333333333331"/>
<polyline fill="none" stroke="teal" stroke-width="2" points="40.0,160.69444444444446 86.66666666666666,160.69444444444446 133.33333333333331,133.19444444444446 180.0,133.19444444444446 226.66666666666666,133.19444444444446 273.33333333333337,133.19444444444446 320.0,133.19444444444446 366.6666666666667,133.19444444444446 413.3333333333333,133.19444444444446 460.0,133.19444444444446"/>
<polyline fill="none" stroke="teal" stroke-width="2" points="40.0,260 86.66666666666666,260 133.33333333333331,260 180.0,260 226.66666666666666,260 273.33333333333337,260 320.0,260 366.6666666666667,260 413.3333333333333,260 460.0,260"/>
<polyline fill="none" stroke="teal" stroke-width="2" points="40.0,260 86.66666666666666,260 133.33333333333331,260 180.0,260 226.66666666666666,260 273.33333333333337,260 320.0,260 366.6666666666667,260 413.3333333333333,260 460.0,260"/>
<polyline fill="none" stroke="teal" stroke-width="2" points="40.0,260 86.66666666666666,260 133.33333333333331,260 180.0,260 226.66666666666666,260 273.33333333333337,260 320.0,260 366.6666666666667,260 413.3333333333333,260 460.0,260"/>
<polyline fill="none" stroke="teal" stroke-width="2" points="40.0,260 86.66666666666666,260 133.33333333333331,260 180.0,260 226.66666666666666,260 273.33333333333337,260 320.0,260 366.6666666666667,260 413.3333333333333,260 460.0,260"/>
</svg>