<svg width="500" height="300" xmlns="http://www.w3.org/2000/svg">
<line x1="40" y1="260" x2="460" y2="260" stroke="black"/>
<line x1="40" y1="40" x2="40" y2="260" stroke="black"/>
<polyline fill="none" stroke="green" stroke-width="2" points="40.0,186.66666666666669 86.66666666666666,186.66666666666669 133.33333333333331,161.91666666666669 180.0,161.91666666666669 226.66666666666666,161.91666666666669 273.33333333333337,161.91666666666669 320.0,161.91666666666669 366.6666666666667,152.75 413.3333333333333,152.75 460.0,152.75"/>
<polyline fill="none" stroke="green" stroke-width="2" points="40.0,144.86666666666667 86.66666666666666,127.26666666666665 133.33333333333331,127.26666666666665 180.0,127.26666666666665 226.66666666666666,127.26666666666665 273.33333333333337,127.26666666666665 320.0,127.26666666666665 366.6666666666667,118.46666666666667 413.3333333333333,118.46666666666667 460.0,138.08333333333331"/>
<polyline fill="none" stroke="green" stroke-width="2" points="40.0,216.0 86.66666666666666,216.0 133.33333333333331,216.0 180.0,216.0 226.66666666666666,216.0 273.33333333333337,216.0 320.0,216.0 366.6666666666667,216.0 413.3333333333333,216.0 460.0,216.0"/>
<polyline fill="none" stroke="green" stroke-width="2" points="40.0,48.46153846153845 86.66666666666666,48.46153846153845 133.33333333333331,48.46153846153845 180.0,48.46153846153845 226.66666666666666,48.46153846153845 273.33333333333337,48.46153846153845 320.0,48.46153846153845 366.6666666666667,48.46153846153845 413.3333333333333,48.46153846153845 460.0,48.46153846153845"/>
<polyline fill="none" stroke="green" stroke-width="2" points="40.0,118.94791666666669 86.66666666666666,118.94791666666669 133.33333333333331,118.3204365079365 180.0,94.00694444444443 226.66666666666666,94.00694444444443 273.33333333333337,81.21180555555557 320.0,81.21180555555557 366.6666666666667,79.98958333333334 413.3333333333333,68.83680555555554 460.0,69.1641865079365"/>
<polyline fill="none" stroke="green" stroke-width="2" points="40.0,260.0 86.66666666666666,230.66666666666669 133.33333333333331,175.66666666666669 180.0,175.66666666666669 226.66666666666666,175.66666666666669 273.33333333333337,175.66666666666669 320.0,175.66666666666669 366.6666666666667,175.66666666666669 413.3333333333333,175.66666666666669 460.0,175.66666666666669"/>
<polyline fill="none" stroke="green" stroke-width="2" points="40.0,201.18055555555554 86.66666666666666,195.94246031746033 133.33333333333331,186.77579365079367 180.0,186.77579365079367 226.66666666666666,182.84722222222223 273.33333333333337,182.84722222222223 320.0,182.84722222222223 366.6666666666667,182.84722222222223 413.3333333333333,182.84722222222223 460.0,182.84722222222223"/>
<polyline fill="none" stroke="green" stroke-width="2" points="40.0,97.81547619047618 86.66666666666666,78.04166666666666 133.33333333333331,67.95833333333334 180.0,68.875 226.66666666666666,68.875 273.33333333333337,68.875 320.0,68.875 366.6666666666667,68.875 413.3333333333333,68.875 460.0,68.875"/>
<polyline fill="none" stroke="green" stroke-width="2" points="40.0,95.52380952380952 86.66666666666666,95.52380952380952 133.33333333333331,95.52380952380952 180.0,95.52380952380952 226.66666666666666,95.52380952380952 273.33333333333337,95.52380952380952 320.0,95.52380952380952 366.6666666666667,95.52380952380952 413.3333333333333,95.52380952380952 460.0,95.52380952380952"/>
<polyline fill="none" stroke="green" stroke-width="2" points="40.0,178.11111111111114 86.66666666666666,193.4567901234568 133.33333333333331,189.11111111111111 180.0,193.4567901234568 226.66666666666666,193.4567901234568 273.33333333333337,181.42857142857144 320.0,181.42857142857144 366.6666666666667,181.42857142857144 413.3333333333333,181.42857142857144 460.0,181.42857142857144"/>
<polyline fill="none" stroke="green" stroke-width="2" points="40.0,153.75833333333338 86.66666666666666,146.43611111111113 133.33333333333331,146.43611111111113 180.0,135.00277777777774 226.66666666666666,161.00277777777774 273.33333333333337,100.77777777777777 320.0,100.77777777777777 366.6666666666667,167.9666666666667 413.3333333333333,167.9666666666667 460.0,167.9666666666667"/>
<polyline fill="none" stroke="green" stroke-width="2" points="40.0,179.33333333333331 86.66666666666666,179.33333333333331 133.33333333333331,250.22222222222226 180.0,250.22222222222226 226.66666666666666,250.22222222222226 273.33333333333337,250.22222222222226 320.0,250.22222222222226 366.6666666666667,250.22222222222226 413.3333333333333,250.22222222222226 460.0,250.22222222222226"/>
<polyline fill="none" stroke="green" stroke-width="2" points="40.0,141.30102040816328 86.66666666666666,99.58956916099774 133.33333333333331,99.58956916099774 180.0,99.58956916099774 226.66666666666666,95.57369614512473 273.33333333333337,98.36734693877551 320.0,98.36734693877551 366.6666666666667,65.5357142857143 413.3333333333333,65.5357142857143 460.0,65.5357142857143"/>
<polyline fill="none" stroke="green" stroke-width="2" points="40.0,260.0 86.66666666666666,150.0 133.33333333333331,150.0 180.0,150.0 226.66666666666666,150.0 273.33333333333337,150.0 320.0,150.0 366.6666666666667,150.0 413.3333333333333,150.0 460.0,150.0"/>
<polyline fill="none" stroke="green" stroke-width="2" points="40.0,175.3846153846154 86.66666666666666,172.5641025641026 133.33333333333331,172.5641025641026 180.0,164.1025641025641 226.66666666666666,164.1025641025641 273.33333333333337,164.1025641025641 320.0,164.1025641025641 366.6666666666667,107.69230769230771 413.3333333333333,140.83333333333334 460.0,107.22222222222223"/>
<polyline fill="none" stroke="green" stroke-width="2" points="40.0,260 86.66666666666666,260 133.33333333333331,260 180.0,260 226.66666666666666,260 273.33333333333337,260 320.0,260 366.6666666666667,260 413.3333333333333,260 460.0,260"/>
<polyline fill="none" stroke="green" stroke-width="2" points="40.0,260 86.66666666666666,260 133.33333333333331,260 180.0,260 226.66666666666666,260 273.33333333333337,260 320.0,260 366.6666666666667,260 413.3333333333333,260 460.0,260"/>
<polyline fill="none" stroke="green" stroke-width="2" points="40.0,260 86.66666666666666,260 133.33333333333331,260 180.0,260 226.66666666666666,260 273.33333333333337,260 320.0,260 366.6666666666667,260 413.3333333333333,260 460.0,260"/>
<polyline fill="none" stroke="green" stroke-width="2" points="40.0,260 86.66666666666666,260 133.33333333333331,260 180.0,260 226.66666666666666,260 273.33333333333337,260 320.0,260 366.6666666666667,260 413.3333333333333,260 460.0,260"/>
</svg>