<svg width="500" height="300" xmlns="http://www.w3.org/2000/svg">
<line x1="40" y1="260" x2="460" y2="260" stroke="black"/>
<line x1="40" y1="40" x2="40" y2="260" stroke="black"/>
<polyline fill="none" stroke="green" stroke-width="2" points="40.0,92.25 86.66666666666666,92.25 133.33333333333331,92.25 180.0,92.25 226.66666666666666,92.25 273.33333333333337,92.25 320.0,74.83333333333334 366.6666666666667,74.83333333333334 413.3333333333333,74.83333333333334 460.0,74.83333333333334"/>
<polyline fill="none" stroke="green" stroke-width="2" points="40.0,60.37037037037035 86.66666666666666,60.37037037037035 133.33333333333331,68.6 180.0,64.44444444444443 226.66666666666666,70.55555555555557 273.33333333333337,70.55555555555557 320.0,70.55555555555557 366.6666666666667,70.55555555555557 413.3333333333333,70.55555555555557 460.0,70.55555555555557"/>
<polyline fill="none" stroke="green" stroke-width="2" points="40.0,160.21428571428572 86.66666666666666,128.0982142857143 133.33333333333331,140.70238095238093 180.0,125.41005291005291 226.66666666666666,125.41005291005291 273.33333333333337,136.08630952380952 320.0,127.5547619047619 366.6666666666667,126.03571428571428 413.3333333333333,126.03571428571428 460.0,118.66964285714286"/>
<polyline fill="none" stroke="green" stroke-width="2" points="40.0,132.9230769230769 86.66666666666666,102.59259259259258 133.33333333333331,89.55555555555554 180.0,79.0 226.66666666666666,114.70833333333334 273.33333333333337,114.70833333333334 320.0,114.70833333333334 366.6666666666667,104.16666666666669 413.3333333333333,104.16666666666669 460.0,109.70833333333334"/>
<polyline fill="none" stroke="green" stroke-width="2" points="40.0,260.0 86.66666666666666,260.0 133.33333333333331,216.0 180.0,216.0 226.66666666666666,216.0 273.33333333333337,260.0 320.0,216.0 366.6666666666667,260.0 413.3333333333333,216.0 460.0,216.0"/>
<polyline fill="none" stroke="green" stroke-width="2" points="40.0,62.15277777777777 86.66666666666666,62.15277777777777 133.33333333333331,62.15277777777777 180.0,54.76851851851853 226.66666666666666,54.76851851851853 273.33333333333337,73.9021164021164 320.0,73.9021164021164 366.6666666666667,48.65740740740742 413.3333333333333,48.65740740740742 460.0,48.65740740740742"/>
<polyline fill="none" stroke="green" stroke-width="2" points="40.0,74.3454715219421 86.66666666666666,75.22875816993465 133.33333333333331,77.92582417582418 180.0,76.86813186813185 226.66666666666666,47.68445839874411 273.33333333333337,55.24285714285713 320.0,85.63186813186812 366.6666666666667,78.41269841269843 413.3333333333333,88.36206896551724 460.0,68.1547619047619"/>
<polyline fill="none" stroke="green" stroke-width="2" points="40.0,232.5 86.66666666666666,102.25 133.33333333333331,90.0 180.0,107.28571428571428 226.66666666666666,48.85714285714286 273.33333333333337,46.785714285714306 320.0,46.785714285714306 366.6666666666667,46.888888888888886 413.3333333333333,46.888888888888886 460.0,46.888888888888886"/>
<polyline fill="none" stroke="green" stroke-width="2" points="40.0,53.138888888888886 86.66666666666666,48.97569444444446 133.33333333333331,48.40277777777777 180.0,47.7534722222222 226.66666666666666,51.45833333333334 273.33333333333337,49.28125 320.0,50.26666666666665 366.6666666666667,51.45833333333334 413.3333333333333,51.45833333333334 460.0,51.45833333333334"/>
<polyline fill="none" stroke="green" stroke-width="2" points="40.0,228.5277777777778 86.66666666666666,228.5277777777778 133.33333333333331,228.5277777777778 180.0,148.98148148148147 226.66666666666666,148.98148148148147 273.33333333333337,148.98148148148147 320.0,139.2037037037037 366.6666666666667,60.675925925925924 413.3333333333333,66.78703703703704 460.0,59.55555555555557"/>
<polyline fill="none" stroke="green" stroke-width="2" points="40.0,95.0 86.66666666666666,95.0 133.33333333333331,95.0 180.0,95.0 226.66666666666666,95.0 273.33333333333337,95.0 320.0,95.0 366.6666666666667,95.0 413.3333333333333,95.0 460.0,95.0"/>
<polyline fill="none" stroke="green" stroke-width="2" points="40.0,260 86.66666666666666,260 133.33333333333331,260 180.0,260 226.66666666666666,260 273.33333333333337,260 320.0,260 366.6666666666667,260 413.3333333333333,260 460.0,260"/>
<polyline fill="none" stroke="green" stroke-width="2" points="40.0,260 86.66666666666666,260 133.33333333333331,260 180.0,260 226.66666666666666,260 273.33333333333337,260 320.0,260 366.6666666666667,260 413.3333333333333,260 460.0,260"/>
</svg>