<svg width="500" height="300" xmlns="http://www.w3.org/2000/svg">
<line x1="40" y1="260" x2="460" y2="260" stroke="black"/>
<line x1="40" y1="40" x2="40" y2="260" stroke="black"/>
<polyline fill="none" stroke="orange" stroke-width="2" points="40.0,248.21428571428572 86.66666666666666,52.11309523809524 133.33333333333331,48.02083333333334 180.0,48.02083333333334 226.66666666666666,48.02083333333334 273.33333333333337,48.02083333333334 320.0,48.02083333333334 366.6666666666667,48.02083333333334 413.3333333333333,48.02083333333334 460.0,48.02083333333334"/>
<polyline fill="none" stroke="orange" stroke-width="2" points="40.0,92.64285714285714 86.66666666666666,87.14285714285714 133.33333333333331,87.14285714285714 180.0,87.14285714285714 226.66666666666666,87.14285714285714 273.33333333333337,87.14285714285714 320.0,53.0952380952381 366.6666666666667,53.0952380952381 413.3333333333333,53.0952380952381 460.0,53.0952380952381"/>
<polyline fill="none" stroke="orange" stroke-width="2" points="40.0,231.1904761904762 86.66666666666666,231.1904761904762 133.33333333333331,231.1904761904762 180.0,199.7619047619048 226.66666666666666,199.7619047619048 273.33333333333337,156.28571428571428 320.0,156.28571428571428 366.6666666666667,156.28571428571428 413.3333333333333,156.28571428571428 460.0,156.28571428571428"/>
<polyline fill="none" stroke="orange" stroke-width="2" points="40.0,260.0 86.66666666666666,232.5 133.33333333333331,232.5 180.0,232.5 226.66666666666666,260.0 273.33333333333337,232.5 320.0,232.5 366.6666666666667,232.5 413.3333333333333,232.5 460.0,232.5"/>
<polyline fill="none" stroke="orange" stroke-width="2" points="40.0,199.8666666666667 86.66666666666666,173.22222222222223 133.33333333333331,173.22222222222223 180.0,170.625 226.66666666666666,164.66666666666669 273.33333333333337,117.0 320.0,117.0 366.6666666666667,117.0 413.3333333333333,117.0 460.0,117.0"/>
<polyline fill="none" stroke="orange" stroke-width="2" points="40.0,260.0 86.66666666666666,203.42857142857144 133.33333333333331,197.53571428571428 180.0,131.14285714285717 226.66666666666666,146.85714285714286 273.33333333333337,131.14285714285717 320.0,146.85714285714286 366.6666666666667,131.14285714285717 413.3333333333333,131.14285714285717 460.0,131.14285714285717"/>
<polyline fill="none" stroke="orange" stroke-width="2" points="40.0,112.46031746031744 86.66666666666666,86.59722222222223 133.33333333333331,88.33333333333334 180.0,71.01388888888891 226.66666666666666,60.41666666666666 273.33333333333337,70.11904761904762 320.0,83.7962962962963 366.6666666666667,57.23333333333335 413.3333333333333,71.7777777777778 460.0,71.7777777777778"/>
<polyline fill="none" stroke="orange" stroke-width="2" points="40.0,255.11111111111114 86.66666666666666,155.5 133.33333333333331,153.53571428571428 180.0,153.53571428571428 226.66666666666666,153.53571428571428 273.33333333333337,153.53571428571428 320.0,153.53571428571428 366.6666666666667,153.53571428571428 413.3333333333333,153.53571428571428 460.0,153.53571428571428"/>
<polyline fill="none" stroke="orange" stroke-width="2" points="40.0,260.0 86.66666666666666,260.0 133.33333333333331,217.17857142857144 180.0,217.17857142857144 226.66666666666666,217.17857142857144 273.33333333333337,172.6111111111111 320.0,217.17857142857144 366.6666666666667,217.17857142857144 413.3333333333333,217.17857142857144 460.0,217.17857142857144"/>
<polyline fill="none" stroke="orange" stroke-width="2" points="40.0,260.0 86.66666666666666,260.0 133.33333333333331,260.0 180.0,188.5 226.66666666666666,177.5 273.33333333333337,112.56944444444446 320.0,191.25 366.6666666666667,67.19444444444446 413.3333333333333,47.87654320987653 460.0,68.22751322751324"/>
<polyline fill="none" stroke="orange" stroke-width="2" points="40.0,101.11111111111111 86.66666666666666,101.11111111111111 133.33333333333331,51.0 180.0,51.0 226.66666666666666,51.0 273.33333333333337,51.0 320.0,51.0 366.6666666666667,51.0 413.3333333333333,51.0 460.0,51.0"/>
<polyline fill="none" stroke="orange" stroke-width="2" points="40.0,61.952380952380935 86.66666666666666,49.604166666666686 133.33333333333331,49.604166666666686 180.0,49.51690821256037 226.66666666666666,61.74074074074073 273.33333333333337,61.888888888888886 320.0,45.298850574712645 366.6666666666667,42.19498910675381 413.3333333333333,43.773946360153246 460.0,80.05698005698005"/>
<polyline fill="none" stroke="orange" stroke-width="2" points="40.0,260.0 86.66666666666666,92.59259259259261 133.33333333333331,260.0 180.0,260.0 226.66666666666666,94.07407407407408 273.33333333333337,114.08547008547006 320.0,98.95424836601305 366.6666666666667,102.07407407407408 413.3333333333333,99.24183006535947 460.0,107.14074074074074"/>
<polyline fill="none" stroke="orange" stroke-width="2" points="40.0,239.62962962962962 86.66666666666666,182.010582010582 133.33333333333331,149.12698412698413 180.0,149.12698412698413 226.66666666666666,149.12698412698413 273.33333333333337,149.12698412698413 320.0,182.010582010582 366.6666666666667,182.010582010582 413.3333333333333,182.010582010582 460.0,113.20238095238096"/>
<polyline fill="none" stroke="orange" stroke-width="2" points="40.0,245.33333333333331 86.66666666666666,99.45238095238093 133.33333333333331,99.45238095238093 180.0,85.83333333333334 226.66666666666666,83.66898148148147 273.33333333333337,82.65046296296296 320.0,72.75173611111111 366.6666666666667,74.41666666666669 413.3333333333333,83.77083333333334 460.0,69.18055555555554"/>
<polyline fill="none" stroke="orange" stroke-width="2" points="40.0,260.0 86.66666666666666,171.89814814814815 133.33333333333331,128.0 180.0,50.47619047619048 226.66666666666666,50.47619047619048 273.33333333333337,50.47619047619048 320.0,43.291505791505784 366.6666666666667,43.00989010989011 413.3333333333333,43.00989010989011 460.0,41.51661129568106"/>
<polyline fill="none" stroke="orange" stroke-width="2" points="40.0,186.66666666666669 86.66666666666666,175.31746031746033 133.33333333333331,92.64285714285714 180.0,79.58791208791209 226.66666666666666,72.76086956521738 273.33333333333337,83.2948717948718 320.0,42.84888241010691 366.6666666666667,58.507936507936506 413.3333333333333,56.95833333333334 460.0,59.38095238095238"/>
<polyline fill="none" stroke="orange" stroke-width="2" points="40.0,260 86.66666666666666,260 133.33333333333331,260 180.0,260 226.66666666666666,260 273.33333333333337,260 320.0,260 366.6666666666667,260 413.3333333333333,260 460.0,260"/>
<polyline fill="none" stroke="orange" stroke-width="2" points="40.0,260 86.66666666666666,260 133.33333333333331,260 180.0,260 226.66666666666666,260 273.33333333333337,260 320.0,260 366.6666666666667,260 413.3333333333333,260 460.0,260"/>
<polyline fill="none" stroke="orange" stroke-width="2" points="40.0,260 86.66666666666666,260 133.33333333333331,260 180.0,260 226.66666666666666,260 273.33333333333337,260 320.0,260 366.6666666666667,260 413.3333333333333,260 460.0,260"/>
<polyline fill="none" stroke="orange" stroke-width="2" points="40.0,260 86.66666666666666,260 133.33333333333331,260 180.0,260 226.66666666666666,260 273.33333333333337,260 320.0,260 366.6666666666667,260 413.3333333333333,260 460.0,260"/>
</svg>