<svg width="500" height="300" xmlns="http://www.w3.org/2000/svg">
<line x1="40" y1="260" x2="460" y2="260" stroke="black"/>
<line x1="40" y1="40" x2="40" y2="260" stroke="black"/>
<polyline fill="none" stroke="purple" stroke-width="2" points="40.0,141.56084656084656 86.66666666666666,94.41798941798942 133.33333333333331,94.41798941798942 180.0,110.13227513227514 226.66666666666666,94.41798941798942 273.33333333333337,94.41798941798942 320.0,99.65608465608466 366.6666666666667,114.95464852607711 413.3333333333333,57.46031746031747 460.0,57.46031746031747"/>
<polyline fill="none" stroke="purple" stroke-width="2" points="40.0,115.95238095238096 86.66666666666666,115.95238095238096 133.33333333333331,73.52380952380952 180.0,66.07407407407408 226.66666666666666,78.2962962962963 273.33333333333337,58.140350877192986 320.0,60.87179487179486 366.6666666666667,70.14814814814815 413.3333333333333,58.088888888888874 460.0,71.33333333333334"/>
<polyline fill="none" stroke="purple" stroke-width="2" points="40.0,98.66666666666666 86.66666666666666,132.8888888888889 133.33333333333331,132.8888888888889 180.0,113.33333333333331 226.66666666666666,117.40740740740742 273.33333333333337,54.66666666666666 320.0,54.66666666666666 366.6666666666667,54.66666666666666 413.3333333333333,54.66666666666666 460.0,54.66666666666666"/>
<polyline fill="none" stroke="purple" stroke-width="2" points="40.0,103.0 86.66666666666666,97.5 133.33333333333331,80.0 180.0,80.0 226.66666666666666,80.0 273.33333333333337,80.0 320.0,59.99999999999997 366.6666666666667,50.0 413.3333333333333,50.0 460.0,59.99999999999997"/>
<polyline fill="none" stroke="purple" stroke-width="2" points="40.0,205.0 86.66666666666666,205.0 133.33333333333331,205.0 180.0,205.0 226.66666666666666,205.0 273.33333333333337,205.0 320.0,205.0 366.6666666666667,205.0 413.3333333333333,205.0 460.0,205.0"/>
<polyline fill="none" stroke="purple" stroke-width="2" points="40.0,260.0 86.66666666666666,260.0 133.33333333333331,247.77777777777777 180.0,260.0 226.66666666666666,162.22222222222223 273.33333333333337,174.44444444444446 320.0,247.77777777777777 366.6666666666667,247.77777777777777 413.3333333333333,247.77777777777777 460.0,247.77777777777777"/>
<polyline fill="none" stroke="purple" stroke-width="2" points="40.0,140.17857142857142 86.66666666666666,140.17857142857142 133.33333333333331,140.17857142857142 180.0,140.17857142857142 226.66666666666666,140.17857142857142 273.33333333333337,118.9642857142857 320.0,172.91666666666669 366.6666666666667,47.85714285714286 413.3333333333333,40.0 460.0,40.0"/>
<polyline fill="none" stroke="purple" stroke-width="2" points="40.0,205.0 86.66666666666666,205.0 133.33333333333331,205.0 180.0,205.0 226.66666666666666,205.0 273.33333333333337,205.0 320.0,205.0 366.6666666666667,205.0 413.3333333333333,205.0 460.0,205.0"/>
<polyline fill="none" stroke="purple" stroke-width="2" points="40.0,260.0 86.66666666666666,186.66666666666669 133.33333333333331,95.0 180.0,95.0 226.66666666666666,84.0 273.33333333333337,84.0 320.0,84.0 366.6666666666667,84.0 413.3333333333333,84.0 460.0,84.0"/>
<polyline fill="none" stroke="purple" stroke-width="2" points="40.0,260.0 86.66666666666666,84.0 133.33333333333331,91.33333333333334 180.0,48.80000000000001 226.66666666666666,47.33333333333334 273.33333333333337,47.33333333333334 320.0,47.33333333333334 366.6666666666667,47.33333333333334 413.3333333333333,47.33333333333334 460.0,47.33333333333334"/>
<polyline fill="none" stroke="purple" stroke-width="2" points="40.0,98.33333333333334 86.66666666666666,98.33333333333334 133.33333333333331,98.33333333333334 180.0,63.703703703703695 226.66666666666666,62.68518518518519 273.33333333333337,72.36111111111111 320.0,70.69444444444443 366.6666666666667,70.69444444444443 413.3333333333333,70.69444444444443 460.0,70.69444444444443"/>
<polyline fill="none" stroke="purple" stroke-width="2" points="40.0,188.8888888888889 86.66666666666666,120.18518518518516 133.33333333333331,101.66666666666666 180.0,97.5 226.66666666666666,121.0 273.33333333333337,147.5 320.0,118.5 366.6666666666667,118.5 413.3333333333333,118.5 460.0,118.5"/>
<polyline fill="none" stroke="purple" stroke-width="2" points="40.0,55.27777777777777 86.66666666666666,61.388888888888886 133.33333333333331,61.388888888888886 180.0,61.388888888888886 226.66666666666666,61.388888888888886 273.33333333333337,61.388888888888886 320.0,61.388888888888886 366.6666666666667,61.388888888888886 413.3333333333333,61.388888888888886 460.0,61.388888888888886"/>
<polyline fill="none" stroke="purple" stroke-width="2" points="40.0,260.0 86.66666666666666,260.0 133.33333333333331,150.0 180.0,150.0 226.66666666666666,150.0 273.33333333333337,150.0 320.0,150.0 366.6666666666667,150.0 413.3333333333333,150.0 460.0,150.0"/>
<polyline fill="none" stroke="purple" stroke-width="2" points="40.0,260.0 86.66666666666666,186.66666666666669 133.33333333333331,150.0 180.0,150.0 226.66666666666666,150.0 273.33333333333337,150.0 320.0,150.0 366.6666666666667,150.0 413.3333333333333,150.0 460.0,150.0"/>
<polyline fill="none" stroke="purple" stroke-width="2" points="40.0,197.14285714285714 86.66666666666666,134.28571428571428 133.33333333333331,134.28571428571428 180.0,134.28571428571428 226.66666666666666,134.28571428571428 273.33333333333337,134.28571428571428 320.0,134.28571428571428 366.6666666666667,134.28571428571428 413.3333333333333,134.28571428571428 460.0,134.28571428571428"/>
<polyline fill="none" stroke="purple" stroke-width="2" points="40.0,212.8571428571429 86.66666666666666,212.8571428571429 133.33333333333331,212.8571428571429 180.0,150.0 226.66666666666666,150.0 273.33333333333337,150.0 320.0,150.0 366.6666666666667,150.0 413.3333333333333,150.0 460.0,150.0"/>
<polyline fill="none" stroke="purple" stroke-width="2" points="40.0,134.9205784912736 86.66666666666666,110.61331822515237 133.33333333333331,100.63178514122131 180.0,76.10510953948392 226.66666666666666,80.58087688441506 273.33333333333337,105.35337616386437 320.0,106.26846401631133 366.6666666666667,108.09015761465284 413.3333333333333,102.13359291154333 460.0,102.13359291154333"/>
<polyline fill="none" stroke="purple" stroke-width="2" points="40.0,128.0 86.66666666666666,128.0 133.33333333333331,84.0 180.0,84.0 226.66666666666666,84.0 273.33333333333337,84.0 320.0,106.0 366.6666666666667,84.0 413.3333333333333,84.0 460.0,84.0"/>
<polyline fill="none" stroke="purple" stroke-width="2" points="40.0,62.0 86.66666666666666,62.0 133.33333333333331,62.0 180.0,62.0 226.66666666666666,62.0 273.33333333333337,62.0 320.0,62.0 366.6666666666667,62.0 413.3333333333333,62.0 460.0,62.0"/>
<polyline fill="none" stroke="purple" stroke-width="2" points="40.0,253.88888888888889 86.66666666666666,180.77380952380952 133.33333333333331,180.77380952380952 180.0,180.77380952380952 226.66666666666666,180.77380952380952 273.33333333333337,180.77380952380952 320.0,180.77380952380952 366.6666666666667,180.77380952380952 413.3333333333333,180.77380952380952 460.0,180.77380952380952"/>
<polyline fill="none" stroke="purple" stroke-width="2" points="40.0,223.33333333333334 86.66666666666666,102.85714285714286 133.33333333333331,71.42857142857144 180.0,71.42857142857144 226.66666666666666,71.42857142857144 273.33333333333337,71.42857142857144 320.0,71.42857142857144 366.6666666666667,71.42857142857144 413.3333333333333,71.42857142857144 460.0,71.42857142857144"/>
<polyline fill="none" stroke="purple" stroke-width="2" points="40.0,194.30555555555554 86.66666666666666,168.33333333333334 133.33333333333331,168.33333333333334 180.0,168.33333333333334 226.66666666666666,168.33333333333334 273.33333333333337,168.33333333333334 320.0,168.33333333333334 366.6666666666667,194.30555555555554 413.3333333333333,194.30555555555554 460.0,194.30555555555554"/>
<polyline fill="none" stroke="purple" stroke-width="2" points="40.0,134.42272140711123 86.66666666666666,134.42272140711123 133.33333333333331,112.86985167050693 180.0,112.86985167050693 226.66666666666666,112.86985167050693 273.33333333333337,110.85342717106309 320.0,111.82012048771122 366.6666666666667,111.82012048771122 413.3333333333333,111.82012048771122 460.0,75.42671358553156"/>
<polyline fill="none" stroke="purple" stroke-width="2" points="40.0,168.33333333333334 86.66666666666666,168.33333333333334 133.33333333333331,168.33333333333334 180.0,168.33333333333334 226.66666666666666,168.33333333333334 273.33333333333337,168.33333333333334 320.0,168.33333333333334 366.6666666666667,168.33333333333334 413.3333333333333,168.33333333333334 460.0,168.33333333333334"/>
<polyline fill="none" stroke="purple" stroke-width="2" points="40.0,260.0 86.66666666666666,260.0 133.33333333333331,219.66666666666666 180.0,219.66666666666666 226.66666666666666,161.0 273.33333333333337,161.0 320.0,161.0 366.6666666666667,161.0 413.3333333333333,161.0 460.0,161.0"/>
<polyline fill="none" stroke="purple" stroke-width="2" points="40.0,76.89499389499389 86.66666666666666,96.60276760276759 133.33333333333331,61.64835164835165 180.0,50.42438513867086 226.66666666666666,51.63317634746207 273.33333333333337,50.179029304029285 320.0,47.50635638870932 366.6666666666667,47.50635638870932 413.3333333333333,47.97550366300368 460.0,43.27932954558344"/>
<polyline fill="none" stroke="purple" stroke-width="2" points="40.0,128.467211103443 86.66666666666666,135.08758147381337 133.33333333333331,130.6345065562457 180.0,130.6345065562457 226.66666666666666,52.30838977924324 273.33333333333337,51.35930473301556 320.0,141.20628402729852 366.6666666666667,70.82020167165095 413.3333333333333,70.82020167165095 460.0,72.78554175293306"/>
<polyline fill="none" stroke="purple" stroke-width="2" points="40.0,186.66666666666669 86.66666666666666,186.66666666666669 133.33333333333331,186.66666666666669 180.0,186.66666666666669 226.66666666666666,186.66666666666669 273.33333333333337,186.66666666666669 320.0,186.66666666666669 366.6666666666667,186.66666666666669 413.3333333333333,186.66666666666669 460.0,186.66666666666669"/>
<polyline fill="none" stroke="purple" stroke-width="2" points="40.0,260.0 86.66666666666666,260.0 133.33333333333331,234.02777777777777 180.0,234.02777777777777 226.66666666666666,167.1111111111111 273.33333333333337,167.1111111111111 320.0,167.1111111111111 366.6666666666667,167.1111111111111 413.3333333333333,167.1111111111111 460.0,167.1111111111111"/>
<polyline fill="none" stroke="purple" stroke-width="2" points="40.0,78.47736625514403 86.66666666666666,75.1793062904174 133.33333333333331,69.42386831275721 180.0,69.42386831275721 226.66666666666666,68.97119341563788 273.33333333333337,68.97119341563788 320.0,68.97119341563788 366.6666666666667,68.97119341563788 413.3333333333333,68.97119341563788 460.0,68.97119341563788"/>
<polyline fill="none" stroke="purple" stroke-width="2" points="40.0,102.85714285714286 86.66666666666666,102.85714285714286 133.33333333333331,102.85714285714286 180.0,102.85714285714286 226.66666666666666,102.85714285714286 273.33333333333337,102.85714285714286 320.0,102.85714285714286 366.6666666666667,102.85714285714286 413.3333333333333,102.85714285714286 460.0,102.85714285714286"/>
<polyline fill="none" stroke="purple" stroke-width="2" points="40.0,53.75 86.66666666666666,53.75 133.33333333333331,53.75 180.0,53.75 226.66666666666666,53.75 273.33333333333337,53.75 320.0,53.75 366.6666666666667,53.75 413.3333333333333,53.75 460.0,53.75"/>
<polyline fill="none" stroke="purple" stroke-width="2" points="40.0,260.0 86.66666666666666,260.0 133.33333333333331,166.87070105820106 180.0,103.43535052910053 226.66666666666666,103.43535052910053 273.33333333333337,98.83184523809524 320.0,144.52901785714283 366.6666666666667,144.52901785714283 413.3333333333333,139.78505291005294 460.0,169.86284722222217"/>
<polyline fill="none" stroke="purple" stroke-width="2" points="40.0,181.42857142857142 86.66666666666666,181.42857142857142 133.33333333333331,155.23809523809524 180.0,155.23809523809524 226.66666666666666,155.23809523809524 273.33333333333337,155.23809523809524 320.0,155.23809523809524 366.6666666666667,155.23809523809524 413.3333333333333,155.23809523809524 460.0,155.23809523809524"/>
<polyline fill="none" stroke="purple" stroke-width="2" points="40.0,88.88888888888889 86.66666666666666,88.88888888888889 133.33333333333331,88.88888888888889 180.0,88.88888888888889 226.66666666666666,88.88888888888889 273.33333333333337,88.88888888888889 320.0,72.59259259259258 366.6666666666667,72.59259259259258 413.3333333333333,72.59259259259258 460.0,72.59259259259258"/>
<polyline fill="none" stroke="purple" stroke-width="2" points="40.0,238.0 86.66666666666666,238.0 133.33333333333331,238.0 180.0,238.0 226.66666666666666,238.0 273.33333333333337,238.0 320.0,238.0 366.6666666666667,238.0 413.3333333333333,238.0 460.0,238.0"/>
<polyline fill="none" stroke="purple" stroke-width="2" points="40.0,260 86.66666666666666,260 133.33333333333331,260 180.0,260 226.66666666666666,260 273.33333333333337,260 320.0,260 366.6666666666667,260 413.3333333333333,260 460.0,260"/>
</svg>